<svg xmlns="http://www.w3.org/2000/svg" width="660" height="175" viewBox="0 0 660 175">
  <defs>
    <linearGradient id="bgdockermulti" x1="0" y1="0" x2="1" y2="1">
      <stop offset="0%"   stop-color="#03101a"/>
      <stop offset="100%" stop-color="#082540"/>
    </linearGradient>
  </defs>

  <!-- fond dégradé -->
  <rect width="660" height="175" fill="url(#bgdockermulti)"/>

  <!-- grille de points (droite uniquement) -->
  <g opacity="0.07"><circle cx="296" cy="14" r="1.5" fill="#2496ed"/><circle cx="296" cy="42" r="1.5" fill="#2496ed"/><circle cx="296" cy="70" r="1.5" fill="#2496ed"/><circle cx="296" cy="98" r="1.5" fill="#2496ed"/><circle cx="296" cy="126" r="1.5" fill="#2496ed"/><circle cx="296" cy="154" r="1.5" fill="#2496ed"/><circle cx="324" cy="14" r="1.5" fill="#2496ed"/><circle cx="324" cy="42" r="1.5" fill="#2496ed"/><circle cx="324" cy="70" r="1.5" fill="#2496ed"/><circle cx="324" cy="98" r="1.5" fill="#2496ed"/><circle cx="324" cy="126" r="1.5" fill="#2496ed"/><circle cx="324" cy="154" r="1.5" fill="#2496ed"/><circle cx="352" cy="14" r="1.5" fill="#2496ed"/><circle cx="352" cy="42" r="1.5" fill="#2496ed"/><circle cx="352" cy="70" r="1.5" fill="#2496ed"/><circle cx="352" cy="98" r="1.5" fill="#2496ed"/><circle cx="352" cy="126" r="1.5" fill="#2496ed"/><circle cx="352" cy="154" r="1.5" fill="#2496ed"/><circle cx="380" cy="14" r="1.5" fill="#2496ed"/><circle cx="380" cy="42" r="1.5" fill="#2496ed"/><circle cx="380" cy="70" r="1.5" fill="#2496ed"/><circle cx="380" cy="98" r="1.5" fill="#2496ed"/><circle cx="380" cy="126" r="1.5" fill="#2496ed"/><circle cx="380" cy="154" r="1.5" fill="#2496ed"/><circle cx="408" cy="14" r="1.5" fill="#2496ed"/><circle cx="408" cy="42" r="1.5" fill="#2496ed"/><circle cx="408" cy="70" r="1.5" fill="#2496ed"/><circle cx="408" cy="98" r="1.5" fill="#2496ed"/><circle cx="408" cy="126" r="1.5" fill="#2496ed"/><circle cx="408" cy="154" r="1.5" fill="#2496ed"/><circle cx="436" cy="14" r="1.5" fill="#2496ed"/><circle cx="436" cy="42" r="1.5" fill="#2496ed"/><circle cx="436" cy="70" r="1.5" fill="#2496ed"/><circle cx="436" cy="98" r="1.5" fill="#2496ed"/><circle cx="436" cy="126" r="1.5" fill="#2496ed"/><circle cx="436" cy="154" r="1.5" fill="#2496ed"/><circle cx="464" cy="14" r="1.5" fill="#2496ed"/><circle cx="464" cy="42" r="1.5" fill="#2496ed"/><circle cx="464" cy="70" r="1.5" fill="#2496ed"/><circle cx="464" cy="98" r="1.5" fill="#2496ed"/><circle cx="464" cy="126" r="1.5" fill="#2496ed"/><circle cx="464" cy="154" r="1.5" fill="#2496ed"/><circle cx="492" cy="14" r="1.5" fill="#2496ed"/><circle cx="492" cy="42" r="1.5" fill="#2496ed"/><circle cx="492" cy="70" r="1.5" fill="#2496ed"/><circle cx="492" cy="98" r="1.5" fill="#2496ed"/><circle cx="492" cy="126" r="1.5" fill="#2496ed"/><circle cx="492" cy="154" r="1.5" fill="#2496ed"/><circle cx="520" cy="14" r="1.5" fill="#2496ed"/><circle cx="520" cy="42" r="1.5" fill="#2496ed"/><circle cx="520" cy="70" r="1.5" fill="#2496ed"/><circle cx="520" cy="98" r="1.5" fill="#2496ed"/><circle cx="520" cy="126" r="1.5" fill="#2496ed"/><circle cx="520" cy="154" r="1.5" fill="#2496ed"/><circle cx="548" cy="14" r="1.5" fill="#2496ed"/><circle cx="548" cy="42" r="1.5" fill="#2496ed"/><circle cx="548" cy="70" r="1.5" fill="#2496ed"/><circle cx="548" cy="98" r="1.5" fill="#2496ed"/><circle cx="548" cy="126" r="1.5" fill="#2496ed"/><circle cx="548" cy="154" r="1.5" fill="#2496ed"/><circle cx="576" cy="14" r="1.5" fill="#2496ed"/><circle cx="576" cy="42" r="1.5" fill="#2496ed"/><circle cx="576" cy="70" r="1.5" fill="#2496ed"/><circle cx="576" cy="98" r="1.5" fill="#2496ed"/><circle cx="576" cy="126" r="1.5" fill="#2496ed"/><circle cx="576" cy="154" r="1.5" fill="#2496ed"/><circle cx="604" cy="14" r="1.5" fill="#2496ed"/><circle cx="604" cy="42" r="1.5" fill="#2496ed"/><circle cx="604" cy="70" r="1.5" fill="#2496ed"/><circle cx="604" cy="98" r="1.5" fill="#2496ed"/><circle cx="604" cy="126" r="1.5" fill="#2496ed"/><circle cx="604" cy="154" r="1.5" fill="#2496ed"/><circle cx="632" cy="14" r="1.5" fill="#2496ed"/><circle cx="632" cy="42" r="1.5" fill="#2496ed"/><circle cx="632" cy="70" r="1.5" fill="#2496ed"/><circle cx="632" cy="98" r="1.5" fill="#2496ed"/><circle cx="632" cy="126" r="1.5" fill="#2496ed"/><circle cx="632" cy="154" r="1.5" fill="#2496ed"/></g>

  <!-- lueur derrière l'icône -->
  <radialGradient id="gl" cx="530" cy="88" r="110" gradientUnits="userSpaceOnUse">
    <stop offset="0%"   stop-color="#2496ed" stop-opacity="0.18"/>
    <stop offset="100%" stop-color="#2496ed" stop-opacity="0"/>
  </radialGradient>
  <circle cx="530" cy="88" r="110" fill="url(#gl)"/>

  <!-- icône décorative -->
  <g transform="translate(530,88)" opacity="0.2">
    <path d="M0,-52 L48,-26 L0,0 L-48,-26 Z"
      fill="#2496ed" fill-opacity="0.08" stroke="#2496ed" stroke-width="2"/>
    <path d="M-48,-10 L0,16 L48,-10" fill="none" stroke="#2496ed" stroke-width="1.8" opacity="0.75"/>
    <path d="M-48,6"  fill="none"/>
    <path d="M-48,6 L0,32 L48,6"   fill="none" stroke="#2496ed" stroke-width="1.5" opacity="0.5"/>
    <path d="M-48,22 L0,48 L48,22" fill="none" stroke="#2496ed" stroke-width="1.2" opacity="0.3"/>
    <circle cx="0" cy="-26" r="6" fill="#2496ed" opacity="0.55"/>
  </g>

  <!-- séparateur vertical -->
  <line x1="420" y1="20" x2="420" y2="155"
    stroke="#2496ed" stroke-width="0.6" stroke-opacity="0.15"/>

  <!-- bande accent gauche -->
  <rect x="0" y="0" width="4" height="175" fill="#2496ed" opacity="0.75"/>

  <!-- ligne top accent -->
  <line x1="4" y1="0.8" x2="420" y2="0.8"
    stroke="#2496ed" stroke-width="1.2" opacity="0.3"/>

  <!-- catégorie -->
  <text x="20" y="35"
    font-family="'Space Mono',monospace,system-ui" font-size="10" font-weight="700"
    fill="#2496ed" opacity="0.65" letter-spacing="2">DEVOPS</text>

  <!-- titre -->
  <text x="20" y="78"
    font-family="'Space Grotesk',system-ui,sans-serif" font-size="26" font-weight="700"
    fill="white" opacity="0.95" letter-spacing="-0.5">Docker Multi-Services</text>

  <!-- ligne sous le titre -->
  <line x1="20" y1="88" x2="335" y2="88"
    stroke="#2496ed" stroke-width="1.5" opacity="0.4"/>

  

  <!-- pills tech -->
  <rect x="36" y="148" width="56.8" height="18" rx="9"
      fill="#2496ed" fill-opacity="0.1" stroke="#2496ed" stroke-width="0.8" stroke-opacity="0.4"/>
    <text x="64.4" y="160.5"
      font-family="'Space Mono',monospace,system-ui" font-size="9.5" font-weight="700"
      fill="#2496ed" opacity="0.75" text-anchor="middle">Docker</text><rect x="99.8" y="148" width="36.4" height="18" rx="9"
      fill="#2496ed" fill-opacity="0.1" stroke="#2496ed" stroke-width="0.8" stroke-opacity="0.4"/>
    <text x="118" y="160.5"
      font-family="'Space Mono',monospace,system-ui" font-size="9.5" font-weight="700"
      fill="#2496ed" opacity="0.75" text-anchor="middle">PHP</text><rect x="143.2" y="148" width="50" height="18" rx="9"
      fill="#2496ed" fill-opacity="0.1" stroke="#2496ed" stroke-width="0.8" stroke-opacity="0.4"/>
    <text x="168.2" y="160.5"
      font-family="'Space Mono',monospace,system-ui" font-size="9.5" font-weight="700"
      fill="#2496ed" opacity="0.75" text-anchor="middle">MySQL</text><rect x="200.2" y="148" width="50" height="18" rx="9"
      fill="#2496ed" fill-opacity="0.1" stroke="#2496ed" stroke-width="0.8" stroke-opacity="0.4"/>
    <text x="225.2" y="160.5"
      font-family="'Space Mono',monospace,system-ui" font-size="9.5" font-weight="700"
      fill="#2496ed" opacity="0.75" text-anchor="middle">Nginx</text>
</svg>