<svg xmlns="http://www.w3.org/2000/svg" width="660" height="175" viewBox="0 0 660 175">
  <defs>
    <linearGradient id="bggestionrestaurant" x1="0" y1="0" x2="1" y2="1">
      <stop offset="0%"   stop-color="#1a1000"/>
      <stop offset="100%" stop-color="#3a2500"/>
    </linearGradient>
  </defs>

  <!-- fond dégradé -->
  <rect width="660" height="175" fill="url(#bggestionrestaurant)"/>

  <!-- grille de points (droite uniquement) -->
  <g opacity="0.07"><circle cx="296" cy="14" r="1.5" fill="#ffd166"/><circle cx="296" cy="42" r="1.5" fill="#ffd166"/><circle cx="296" cy="70" r="1.5" fill="#ffd166"/><circle cx="296" cy="98" r="1.5" fill="#ffd166"/><circle cx="296" cy="126" r="1.5" fill="#ffd166"/><circle cx="296" cy="154" r="1.5" fill="#ffd166"/><circle cx="324" cy="14" r="1.5" fill="#ffd166"/><circle cx="324" cy="42" r="1.5" fill="#ffd166"/><circle cx="324" cy="70" r="1.5" fill="#ffd166"/><circle cx="324" cy="98" r="1.5" fill="#ffd166"/><circle cx="324" cy="126" r="1.5" fill="#ffd166"/><circle cx="324" cy="154" r="1.5" fill="#ffd166"/><circle cx="352" cy="14" r="1.5" fill="#ffd166"/><circle cx="352" cy="42" r="1.5" fill="#ffd166"/><circle cx="352" cy="70" r="1.5" fill="#ffd166"/><circle cx="352" cy="98" r="1.5" fill="#ffd166"/><circle cx="352" cy="126" r="1.5" fill="#ffd166"/><circle cx="352" cy="154" r="1.5" fill="#ffd166"/><circle cx="380" cy="14" r="1.5" fill="#ffd166"/><circle cx="380" cy="42" r="1.5" fill="#ffd166"/><circle cx="380" cy="70" r="1.5" fill="#ffd166"/><circle cx="380" cy="98" r="1.5" fill="#ffd166"/><circle cx="380" cy="126" r="1.5" fill="#ffd166"/><circle cx="380" cy="154" r="1.5" fill="#ffd166"/><circle cx="408" cy="14" r="1.5" fill="#ffd166"/><circle cx="408" cy="42" r="1.5" fill="#ffd166"/><circle cx="408" cy="70" r="1.5" fill="#ffd166"/><circle cx="408" cy="98" r="1.5" fill="#ffd166"/><circle cx="408" cy="126" r="1.5" fill="#ffd166"/><circle cx="408" cy="154" r="1.5" fill="#ffd166"/><circle cx="436" cy="14" r="1.5" fill="#ffd166"/><circle cx="436" cy="42" r="1.5" fill="#ffd166"/><circle cx="436" cy="70" r="1.5" fill="#ffd166"/><circle cx="436" cy="98" r="1.5" fill="#ffd166"/><circle cx="436" cy="126" r="1.5" fill="#ffd166"/><circle cx="436" cy="154" r="1.5" fill="#ffd166"/><circle cx="464" cy="14" r="1.5" fill="#ffd166"/><circle cx="464" cy="42" r="1.5" fill="#ffd166"/><circle cx="464" cy="70" r="1.5" fill="#ffd166"/><circle cx="464" cy="98" r="1.5" fill="#ffd166"/><circle cx="464" cy="126" r="1.5" fill="#ffd166"/><circle cx="464" cy="154" r="1.5" fill="#ffd166"/><circle cx="492" cy="14" r="1.5" fill="#ffd166"/><circle cx="492" cy="42" r="1.5" fill="#ffd166"/><circle cx="492" cy="70" r="1.5" fill="#ffd166"/><circle cx="492" cy="98" r="1.5" fill="#ffd166"/><circle cx="492" cy="126" r="1.5" fill="#ffd166"/><circle cx="492" cy="154" r="1.5" fill="#ffd166"/><circle cx="520" cy="14" r="1.5" fill="#ffd166"/><circle cx="520" cy="42" r="1.5" fill="#ffd166"/><circle cx="520" cy="70" r="1.5" fill="#ffd166"/><circle cx="520" cy="98" r="1.5" fill="#ffd166"/><circle cx="520" cy="126" r="1.5" fill="#ffd166"/><circle cx="520" cy="154" r="1.5" fill="#ffd166"/><circle cx="548" cy="14" r="1.5" fill="#ffd166"/><circle cx="548" cy="42" r="1.5" fill="#ffd166"/><circle cx="548" cy="70" r="1.5" fill="#ffd166"/><circle cx="548" cy="98" r="1.5" fill="#ffd166"/><circle cx="548" cy="126" r="1.5" fill="#ffd166"/><circle cx="548" cy="154" r="1.5" fill="#ffd166"/><circle cx="576" cy="14" r="1.5" fill="#ffd166"/><circle cx="576" cy="42" r="1.5" fill="#ffd166"/><circle cx="576" cy="70" r="1.5" fill="#ffd166"/><circle cx="576" cy="98" r="1.5" fill="#ffd166"/><circle cx="576" cy="126" r="1.5" fill="#ffd166"/><circle cx="576" cy="154" r="1.5" fill="#ffd166"/><circle cx="604" cy="14" r="1.5" fill="#ffd166"/><circle cx="604" cy="42" r="1.5" fill="#ffd166"/><circle cx="604" cy="70" r="1.5" fill="#ffd166"/><circle cx="604" cy="98" r="1.5" fill="#ffd166"/><circle cx="604" cy="126" r="1.5" fill="#ffd166"/><circle cx="604" cy="154" r="1.5" fill="#ffd166"/><circle cx="632" cy="14" r="1.5" fill="#ffd166"/><circle cx="632" cy="42" r="1.5" fill="#ffd166"/><circle cx="632" cy="70" r="1.5" fill="#ffd166"/><circle cx="632" cy="98" r="1.5" fill="#ffd166"/><circle cx="632" cy="126" r="1.5" fill="#ffd166"/><circle cx="632" cy="154" r="1.5" fill="#ffd166"/></g>

  <!-- lueur derrière l'icône -->
  <radialGradient id="gl" cx="530" cy="88" r="110" gradientUnits="userSpaceOnUse">
    <stop offset="0%"   stop-color="#ffd166" stop-opacity="0.18"/>
    <stop offset="100%" stop-color="#ffd166" stop-opacity="0"/>
  </radialGradient>
  <circle cx="530" cy="88" r="110" fill="url(#gl)"/>

  <!-- icône décorative -->
  <g transform="translate(530,88)" opacity="0.2">
    <line x1="-22" y1="-55" x2="-22" y2="55" stroke="#ffd166" stroke-width="3" stroke-linecap="round"/>
    <line x1="-30" y1="-55" x2="-30" y2="-22" stroke="#ffd166" stroke-width="2" stroke-linecap="round"/>
    <line x1="-14" y1="-55" x2="-14" y2="-22" stroke="#ffd166" stroke-width="2" stroke-linecap="round"/>
    <path d="M-30,-22 Q-22,-10 -14,-22" fill="none" stroke="#ffd166" stroke-width="2" stroke-linecap="round"/>
    <line x1="22" y1="-55" x2="22" y2="55" stroke="#ffd166" stroke-width="3" stroke-linecap="round"/>
    <path d="M22,-55 Q40,-30 22,2" fill="#ffd166" fill-opacity="0.15" stroke="#ffd166" stroke-width="1.5"/>
  </g>

  <!-- séparateur vertical -->
  <line x1="420" y1="20" x2="420" y2="155"
    stroke="#ffd166" stroke-width="0.6" stroke-opacity="0.15"/>

  <!-- bande accent gauche -->
  <rect x="0" y="0" width="4" height="175" fill="#ffd166" opacity="0.75"/>

  <!-- ligne top accent -->
  <line x1="4" y1="0.8" x2="420" y2="0.8"
    stroke="#ffd166" stroke-width="1.2" opacity="0.3"/>

  <!-- catégorie -->
  <text x="20" y="35"
    font-family="'Space Mono',monospace,system-ui" font-size="10" font-weight="700"
    fill="#ffd166" opacity="0.65" letter-spacing="2">DESKTOP</text>

  <!-- titre -->
  <text x="20" y="78"
    font-family="'Space Grotesk',system-ui,sans-serif" font-size="26" font-weight="700"
    fill="white" opacity="0.95" letter-spacing="-0.5">Gestion Restaurant</text>

  <!-- ligne sous le titre -->
  <line x1="20" y1="88" x2="290" y2="88"
    stroke="#ffd166" stroke-width="1.5" opacity="0.4"/>

  

  <!-- pills tech -->
  <rect x="36" y="148" width="29.6" height="18" rx="9"
      fill="#ffd166" fill-opacity="0.1" stroke="#ffd166" stroke-width="0.8" stroke-opacity="0.4"/>
    <text x="50.8" y="160.5"
      font-family="'Space Mono',monospace,system-ui" font-size="9.5" font-weight="700"
      fill="#ffd166" opacity="0.75" text-anchor="middle">C#</text><rect x="72.6" y="148" width="84" height="18" rx="9"
      fill="#ffd166" fill-opacity="0.1" stroke="#ffd166" stroke-width="0.8" stroke-opacity="0.4"/>
    <text x="114.6" y="160.5"
      font-family="'Space Mono',monospace,system-ui" font-size="9.5" font-weight="700"
      fill="#ffd166" opacity="0.75" text-anchor="middle">SQL Server</text><rect x="163.6" y="148" width="43.2" height="18" rx="9"
      fill="#ffd166" fill-opacity="0.1" stroke="#ffd166" stroke-width="0.8" stroke-opacity="0.4"/>
    <text x="185.2" y="160.5"
      font-family="'Space Mono',monospace,system-ui" font-size="9.5" font-weight="700"
      fill="#ffd166" opacity="0.75" text-anchor="middle">.NET</text>
</svg>