<svg xmlns="http://www.w3.org/2000/svg" width="660" height="175" viewBox="0 0 660 175">
  <defs>
    <linearGradient id="bggestionreparations" x1="0" y1="0" x2="1" y2="1">
      <stop offset="0%"   stop-color="#0e0e0e"/>
      <stop offset="100%" stop-color="#1e1e1e"/>
    </linearGradient>
  </defs>

  <!-- fond dégradé -->
  <rect width="660" height="175" fill="url(#bggestionreparations)"/>

  <!-- grille de points (droite uniquement) -->
  <g opacity="0.07"><circle cx="296" cy="14" r="1.5" fill="#94a3b8"/><circle cx="296" cy="42" r="1.5" fill="#94a3b8"/><circle cx="296" cy="70" r="1.5" fill="#94a3b8"/><circle cx="296" cy="98" r="1.5" fill="#94a3b8"/><circle cx="296" cy="126" r="1.5" fill="#94a3b8"/><circle cx="296" cy="154" r="1.5" fill="#94a3b8"/><circle cx="324" cy="14" r="1.5" fill="#94a3b8"/><circle cx="324" cy="42" r="1.5" fill="#94a3b8"/><circle cx="324" cy="70" r="1.5" fill="#94a3b8"/><circle cx="324" cy="98" r="1.5" fill="#94a3b8"/><circle cx="324" cy="126" r="1.5" fill="#94a3b8"/><circle cx="324" cy="154" r="1.5" fill="#94a3b8"/><circle cx="352" cy="14" r="1.5" fill="#94a3b8"/><circle cx="352" cy="42" r="1.5" fill="#94a3b8"/><circle cx="352" cy="70" r="1.5" fill="#94a3b8"/><circle cx="352" cy="98" r="1.5" fill="#94a3b8"/><circle cx="352" cy="126" r="1.5" fill="#94a3b8"/><circle cx="352" cy="154" r="1.5" fill="#94a3b8"/><circle cx="380" cy="14" r="1.5" fill="#94a3b8"/><circle cx="380" cy="42" r="1.5" fill="#94a3b8"/><circle cx="380" cy="70" r="1.5" fill="#94a3b8"/><circle cx="380" cy="98" r="1.5" fill="#94a3b8"/><circle cx="380" cy="126" r="1.5" fill="#94a3b8"/><circle cx="380" cy="154" r="1.5" fill="#94a3b8"/><circle cx="408" cy="14" r="1.5" fill="#94a3b8"/><circle cx="408" cy="42" r="1.5" fill="#94a3b8"/><circle cx="408" cy="70" r="1.5" fill="#94a3b8"/><circle cx="408" cy="98" r="1.5" fill="#94a3b8"/><circle cx="408" cy="126" r="1.5" fill="#94a3b8"/><circle cx="408" cy="154" r="1.5" fill="#94a3b8"/><circle cx="436" cy="14" r="1.5" fill="#94a3b8"/><circle cx="436" cy="42" r="1.5" fill="#94a3b8"/><circle cx="436" cy="70" r="1.5" fill="#94a3b8"/><circle cx="436" cy="98" r="1.5" fill="#94a3b8"/><circle cx="436" cy="126" r="1.5" fill="#94a3b8"/><circle cx="436" cy="154" r="1.5" fill="#94a3b8"/><circle cx="464" cy="14" r="1.5" fill="#94a3b8"/><circle cx="464" cy="42" r="1.5" fill="#94a3b8"/><circle cx="464" cy="70" r="1.5" fill="#94a3b8"/><circle cx="464" cy="98" r="1.5" fill="#94a3b8"/><circle cx="464" cy="126" r="1.5" fill="#94a3b8"/><circle cx="464" cy="154" r="1.5" fill="#94a3b8"/><circle cx="492" cy="14" r="1.5" fill="#94a3b8"/><circle cx="492" cy="42" r="1.5" fill="#94a3b8"/><circle cx="492" cy="70" r="1.5" fill="#94a3b8"/><circle cx="492" cy="98" r="1.5" fill="#94a3b8"/><circle cx="492" cy="126" r="1.5" fill="#94a3b8"/><circle cx="492" cy="154" r="1.5" fill="#94a3b8"/><circle cx="520" cy="14" r="1.5" fill="#94a3b8"/><circle cx="520" cy="42" r="1.5" fill="#94a3b8"/><circle cx="520" cy="70" r="1.5" fill="#94a3b8"/><circle cx="520" cy="98" r="1.5" fill="#94a3b8"/><circle cx="520" cy="126" r="1.5" fill="#94a3b8"/><circle cx="520" cy="154" r="1.5" fill="#94a3b8"/><circle cx="548" cy="14" r="1.5" fill="#94a3b8"/><circle cx="548" cy="42" r="1.5" fill="#94a3b8"/><circle cx="548" cy="70" r="1.5" fill="#94a3b8"/><circle cx="548" cy="98" r="1.5" fill="#94a3b8"/><circle cx="548" cy="126" r="1.5" fill="#94a3b8"/><circle cx="548" cy="154" r="1.5" fill="#94a3b8"/><circle cx="576" cy="14" r="1.5" fill="#94a3b8"/><circle cx="576" cy="42" r="1.5" fill="#94a3b8"/><circle cx="576" cy="70" r="1.5" fill="#94a3b8"/><circle cx="576" cy="98" r="1.5" fill="#94a3b8"/><circle cx="576" cy="126" r="1.5" fill="#94a3b8"/><circle cx="576" cy="154" r="1.5" fill="#94a3b8"/><circle cx="604" cy="14" r="1.5" fill="#94a3b8"/><circle cx="604" cy="42" r="1.5" fill="#94a3b8"/><circle cx="604" cy="70" r="1.5" fill="#94a3b8"/><circle cx="604" cy="98" r="1.5" fill="#94a3b8"/><circle cx="604" cy="126" r="1.5" fill="#94a3b8"/><circle cx="604" cy="154" r="1.5" fill="#94a3b8"/><circle cx="632" cy="14" r="1.5" fill="#94a3b8"/><circle cx="632" cy="42" r="1.5" fill="#94a3b8"/><circle cx="632" cy="70" r="1.5" fill="#94a3b8"/><circle cx="632" cy="98" r="1.5" fill="#94a3b8"/><circle cx="632" cy="126" r="1.5" fill="#94a3b8"/><circle cx="632" cy="154" r="1.5" fill="#94a3b8"/></g>

  <!-- lueur derrière l'icône -->
  <radialGradient id="gl" cx="530" cy="88" r="110" gradientUnits="userSpaceOnUse">
    <stop offset="0%"   stop-color="#94a3b8" stop-opacity="0.18"/>
    <stop offset="100%" stop-color="#94a3b8" stop-opacity="0"/>
  </radialGradient>
  <circle cx="530" cy="88" r="110" fill="url(#gl)"/>

  <!-- icône décorative -->
  <g transform="translate(530,88)" opacity="0.18">
    <path d="M-8,-52 Q-26,-46 -26,-28 Q-26,-16 -14,-8 L32,38 Q38,46 30,54 Q22,60 14,52 L-32,6 Q-46,-4 -44,-20 Q-40,-40 -22,-48 Z"
      fill="#94a3b8" fill-opacity="0.08" stroke="#94a3b8" stroke-width="2"/>
    <circle cx="-26" cy="-30" r="12" fill="none" stroke="#94a3b8" stroke-width="1.5"/>
    <circle cx="-26" cy="-30" r="5"  fill="#94a3b8" opacity="0.4"/>
    <circle cx="24"  cy="46"  r="9"  fill="#94a3b8" fill-opacity="0.12" stroke="#94a3b8" stroke-width="1.5"/>
  </g>

  <!-- séparateur vertical -->
  <line x1="420" y1="20" x2="420" y2="155"
    stroke="#94a3b8" stroke-width="0.6" stroke-opacity="0.15"/>

  <!-- bande accent gauche -->
  <rect x="0" y="0" width="4" height="175" fill="#94a3b8" opacity="0.75"/>

  <!-- ligne top accent -->
  <line x1="4" y1="0.8" x2="420" y2="0.8"
    stroke="#94a3b8" stroke-width="1.2" opacity="0.3"/>

  <!-- catégorie -->
  <text x="20" y="35"
    font-family="'Space Mono',monospace,system-ui" font-size="10" font-weight="700"
    fill="#94a3b8" opacity="0.65" letter-spacing="2">WEB</text>

  <!-- titre -->
  <text x="20" y="78"
    font-family="'Space Grotesk',system-ui,sans-serif" font-size="26" font-weight="700"
    fill="white" opacity="0.95" letter-spacing="-0.5">Gestion Réparations</text>

  <!-- ligne sous le titre -->
  <line x1="20" y1="88" x2="305" y2="88"
    stroke="#94a3b8" stroke-width="1.5" opacity="0.4"/>

  

  <!-- pills tech -->
  <rect x="36" y="148" width="36.4" height="18" rx="9"
      fill="#94a3b8" fill-opacity="0.1" stroke="#94a3b8" stroke-width="0.8" stroke-opacity="0.4"/>
    <text x="54.2" y="160.5"
      font-family="'Space Mono',monospace,system-ui" font-size="9.5" font-weight="700"
      fill="#94a3b8" opacity="0.75" text-anchor="middle">PHP</text><rect x="79.4" y="148" width="50" height="18" rx="9"
      fill="#94a3b8" fill-opacity="0.1" stroke="#94a3b8" stroke-width="0.8" stroke-opacity="0.4"/>
    <text x="104.4" y="160.5"
      font-family="'Space Mono',monospace,system-ui" font-size="9.5" font-weight="700"
      fill="#94a3b8" opacity="0.75" text-anchor="middle">MySQL</text><rect x="136.4" y="148" width="56.8" height="18" rx="9"
      fill="#94a3b8" fill-opacity="0.1" stroke="#94a3b8" stroke-width="0.8" stroke-opacity="0.4"/>
    <text x="164.8" y="160.5"
      font-family="'Space Mono',monospace,system-ui" font-size="9.5" font-weight="700"
      fill="#94a3b8" opacity="0.75" text-anchor="middle">Merise</text>
</svg>