<svg xmlns="http://www.w3.org/2000/svg" width="660" height="175" viewBox="0 0 660 175">
  <defs>
    <linearGradient id="bghackingethique" x1="0" y1="0" x2="1" y2="1">
      <stop offset="0%"   stop-color="#140405"/>
      <stop offset="100%" stop-color="#320a0a"/>
    </linearGradient>
  </defs>

  <!-- fond dégradé -->
  <rect width="660" height="175" fill="url(#bghackingethique)"/>

  <!-- grille de points (droite uniquement) -->
  <g opacity="0.07"><circle cx="296" cy="14" r="1.5" fill="#ff6b6b"/><circle cx="296" cy="42" r="1.5" fill="#ff6b6b"/><circle cx="296" cy="70" r="1.5" fill="#ff6b6b"/><circle cx="296" cy="98" r="1.5" fill="#ff6b6b"/><circle cx="296" cy="126" r="1.5" fill="#ff6b6b"/><circle cx="296" cy="154" r="1.5" fill="#ff6b6b"/><circle cx="324" cy="14" r="1.5" fill="#ff6b6b"/><circle cx="324" cy="42" r="1.5" fill="#ff6b6b"/><circle cx="324" cy="70" r="1.5" fill="#ff6b6b"/><circle cx="324" cy="98" r="1.5" fill="#ff6b6b"/><circle cx="324" cy="126" r="1.5" fill="#ff6b6b"/><circle cx="324" cy="154" r="1.5" fill="#ff6b6b"/><circle cx="352" cy="14" r="1.5" fill="#ff6b6b"/><circle cx="352" cy="42" r="1.5" fill="#ff6b6b"/><circle cx="352" cy="70" r="1.5" fill="#ff6b6b"/><circle cx="352" cy="98" r="1.5" fill="#ff6b6b"/><circle cx="352" cy="126" r="1.5" fill="#ff6b6b"/><circle cx="352" cy="154" r="1.5" fill="#ff6b6b"/><circle cx="380" cy="14" r="1.5" fill="#ff6b6b"/><circle cx="380" cy="42" r="1.5" fill="#ff6b6b"/><circle cx="380" cy="70" r="1.5" fill="#ff6b6b"/><circle cx="380" cy="98" r="1.5" fill="#ff6b6b"/><circle cx="380" cy="126" r="1.5" fill="#ff6b6b"/><circle cx="380" cy="154" r="1.5" fill="#ff6b6b"/><circle cx="408" cy="14" r="1.5" fill="#ff6b6b"/><circle cx="408" cy="42" r="1.5" fill="#ff6b6b"/><circle cx="408" cy="70" r="1.5" fill="#ff6b6b"/><circle cx="408" cy="98" r="1.5" fill="#ff6b6b"/><circle cx="408" cy="126" r="1.5" fill="#ff6b6b"/><circle cx="408" cy="154" r="1.5" fill="#ff6b6b"/><circle cx="436" cy="14" r="1.5" fill="#ff6b6b"/><circle cx="436" cy="42" r="1.5" fill="#ff6b6b"/><circle cx="436" cy="70" r="1.5" fill="#ff6b6b"/><circle cx="436" cy="98" r="1.5" fill="#ff6b6b"/><circle cx="436" cy="126" r="1.5" fill="#ff6b6b"/><circle cx="436" cy="154" r="1.5" fill="#ff6b6b"/><circle cx="464" cy="14" r="1.5" fill="#ff6b6b"/><circle cx="464" cy="42" r="1.5" fill="#ff6b6b"/><circle cx="464" cy="70" r="1.5" fill="#ff6b6b"/><circle cx="464" cy="98" r="1.5" fill="#ff6b6b"/><circle cx="464" cy="126" r="1.5" fill="#ff6b6b"/><circle cx="464" cy="154" r="1.5" fill="#ff6b6b"/><circle cx="492" cy="14" r="1.5" fill="#ff6b6b"/><circle cx="492" cy="42" r="1.5" fill="#ff6b6b"/><circle cx="492" cy="70" r="1.5" fill="#ff6b6b"/><circle cx="492" cy="98" r="1.5" fill="#ff6b6b"/><circle cx="492" cy="126" r="1.5" fill="#ff6b6b"/><circle cx="492" cy="154" r="1.5" fill="#ff6b6b"/><circle cx="520" cy="14" r="1.5" fill="#ff6b6b"/><circle cx="520" cy="42" r="1.5" fill="#ff6b6b"/><circle cx="520" cy="70" r="1.5" fill="#ff6b6b"/><circle cx="520" cy="98" r="1.5" fill="#ff6b6b"/><circle cx="520" cy="126" r="1.5" fill="#ff6b6b"/><circle cx="520" cy="154" r="1.5" fill="#ff6b6b"/><circle cx="548" cy="14" r="1.5" fill="#ff6b6b"/><circle cx="548" cy="42" r="1.5" fill="#ff6b6b"/><circle cx="548" cy="70" r="1.5" fill="#ff6b6b"/><circle cx="548" cy="98" r="1.5" fill="#ff6b6b"/><circle cx="548" cy="126" r="1.5" fill="#ff6b6b"/><circle cx="548" cy="154" r="1.5" fill="#ff6b6b"/><circle cx="576" cy="14" r="1.5" fill="#ff6b6b"/><circle cx="576" cy="42" r="1.5" fill="#ff6b6b"/><circle cx="576" cy="70" r="1.5" fill="#ff6b6b"/><circle cx="576" cy="98" r="1.5" fill="#ff6b6b"/><circle cx="576" cy="126" r="1.5" fill="#ff6b6b"/><circle cx="576" cy="154" r="1.5" fill="#ff6b6b"/><circle cx="604" cy="14" r="1.5" fill="#ff6b6b"/><circle cx="604" cy="42" r="1.5" fill="#ff6b6b"/><circle cx="604" cy="70" r="1.5" fill="#ff6b6b"/><circle cx="604" cy="98" r="1.5" fill="#ff6b6b"/><circle cx="604" cy="126" r="1.5" fill="#ff6b6b"/><circle cx="604" cy="154" r="1.5" fill="#ff6b6b"/><circle cx="632" cy="14" r="1.5" fill="#ff6b6b"/><circle cx="632" cy="42" r="1.5" fill="#ff6b6b"/><circle cx="632" cy="70" r="1.5" fill="#ff6b6b"/><circle cx="632" cy="98" r="1.5" fill="#ff6b6b"/><circle cx="632" cy="126" r="1.5" fill="#ff6b6b"/><circle cx="632" cy="154" r="1.5" fill="#ff6b6b"/></g>

  <!-- lueur derrière l'icône -->
  <radialGradient id="gl" cx="530" cy="88" r="110" gradientUnits="userSpaceOnUse">
    <stop offset="0%"   stop-color="#ff6b6b" stop-opacity="0.18"/>
    <stop offset="100%" stop-color="#ff6b6b" stop-opacity="0"/>
  </radialGradient>
  <circle cx="530" cy="88" r="110" fill="url(#gl)"/>

  <!-- icône décorative -->
  <g transform="translate(530,88)" opacity="0.2">
    <path d="M0,-55 L40,-33 L40,8 Q40,46 0,62 Q-40,46 -40,8 L-40,-33 Z"
      fill="#ff6b6b" fill-opacity="0.06" stroke="#ff6b6b" stroke-width="2"/>
    <rect x="-11" y="-10" width="22" height="22" rx="3"
      fill="none" stroke="#ff6b6b" stroke-width="2"/>
    <path d="M-6,-10 Q-6,-22 0,-22 Q6,-22 6,-10" fill="none" stroke="#ff6b6b" stroke-width="2"/>
    <circle cx="0" cy="4" r="3" fill="#ff6b6b" opacity="0.6"/>
  </g>

  <!-- séparateur vertical -->
  <line x1="420" y1="20" x2="420" y2="155"
    stroke="#ff6b6b" stroke-width="0.6" stroke-opacity="0.15"/>

  <!-- bande accent gauche -->
  <rect x="0" y="0" width="4" height="175" fill="#ff6b6b" opacity="0.75"/>

  <!-- ligne top accent -->
  <line x1="4" y1="0.8" x2="420" y2="0.8"
    stroke="#ff6b6b" stroke-width="1.2" opacity="0.3"/>

  <!-- catégorie -->
  <text x="20" y="35"
    font-family="'Space Mono',monospace,system-ui" font-size="10" font-weight="700"
    fill="#ff6b6b" opacity="0.65" letter-spacing="2">SÉCURITÉ</text>

  <!-- titre -->
  <text x="20" y="78"
    font-family="'Space Grotesk',system-ui,sans-serif" font-size="26" font-weight="700"
    fill="white" opacity="0.95" letter-spacing="-0.5">Hacking Éthique</text>

  <!-- ligne sous le titre -->
  <line x1="20" y1="88" x2="245" y2="88"
    stroke="#ff6b6b" stroke-width="1.5" opacity="0.4"/>

  

  <!-- pills tech -->
  <rect x="36" y="148" width="84" height="18" rx="9"
      fill="#ff6b6b" fill-opacity="0.1" stroke="#ff6b6b" stroke-width="0.8" stroke-opacity="0.4"/>
    <text x="78" y="160.5"
      font-family="'Space Mono',monospace,system-ui" font-size="9.5" font-weight="700"
      fill="#ff6b6b" opacity="0.75" text-anchor="middle">Kali Linux</text><rect x="127" y="148" width="84" height="18" rx="9"
      fill="#ff6b6b" fill-opacity="0.1" stroke="#ff6b6b" stroke-width="0.8" stroke-opacity="0.4"/>
    <text x="169" y="160.5"
      font-family="'Space Mono',monospace,system-ui" font-size="9.5" font-weight="700"
      fill="#ff6b6b" opacity="0.75" text-anchor="middle">Metasploit</text><rect x="218" y="148" width="43.2" height="18" rx="9"
      fill="#ff6b6b" fill-opacity="0.1" stroke="#ff6b6b" stroke-width="0.8" stroke-opacity="0.4"/>
    <text x="239.6" y="160.5"
      font-family="'Space Mono',monospace,system-ui" font-size="9.5" font-weight="700"
      fill="#ff6b6b" opacity="0.75" text-anchor="middle">Nmap</text><rect x="268.2" y="148" width="50" height="18" rx="9"
      fill="#ff6b6b" fill-opacity="0.1" stroke="#ff6b6b" stroke-width="0.8" stroke-opacity="0.4"/>
    <text x="293.2" y="160.5"
      font-family="'Space Mono',monospace,system-ui" font-size="9.5" font-weight="700"
      fill="#ff6b6b" opacity="0.75" text-anchor="middle">Hydra</text>
</svg>