<svg xmlns="http://www.w3.org/2000/svg" width="660" height="175" viewBox="0 0 660 175">
  <defs>
    <linearGradient id="bgpythongui" x1="0" y1="0" x2="1" y2="1">
      <stop offset="0%"   stop-color="#131206"/>
      <stop offset="100%" stop-color="#28260a"/>
    </linearGradient>
  </defs>

  <!-- fond dégradé -->
  <rect width="660" height="175" fill="url(#bgpythongui)"/>

  <!-- grille de points (droite uniquement) -->
  <g opacity="0.07"><circle cx="296" cy="14" r="1.5" fill="#ffd166"/><circle cx="296" cy="42" r="1.5" fill="#ffd166"/><circle cx="296" cy="70" r="1.5" fill="#ffd166"/><circle cx="296" cy="98" r="1.5" fill="#ffd166"/><circle cx="296" cy="126" r="1.5" fill="#ffd166"/><circle cx="296" cy="154" r="1.5" fill="#ffd166"/><circle cx="324" cy="14" r="1.5" fill="#ffd166"/><circle cx="324" cy="42" r="1.5" fill="#ffd166"/><circle cx="324" cy="70" r="1.5" fill="#ffd166"/><circle cx="324" cy="98" r="1.5" fill="#ffd166"/><circle cx="324" cy="126" r="1.5" fill="#ffd166"/><circle cx="324" cy="154" r="1.5" fill="#ffd166"/><circle cx="352" cy="14" r="1.5" fill="#ffd166"/><circle cx="352" cy="42" r="1.5" fill="#ffd166"/><circle cx="352" cy="70" r="1.5" fill="#ffd166"/><circle cx="352" cy="98" r="1.5" fill="#ffd166"/><circle cx="352" cy="126" r="1.5" fill="#ffd166"/><circle cx="352" cy="154" r="1.5" fill="#ffd166"/><circle cx="380" cy="14" r="1.5" fill="#ffd166"/><circle cx="380" cy="42" r="1.5" fill="#ffd166"/><circle cx="380" cy="70" r="1.5" fill="#ffd166"/><circle cx="380" cy="98" r="1.5" fill="#ffd166"/><circle cx="380" cy="126" r="1.5" fill="#ffd166"/><circle cx="380" cy="154" r="1.5" fill="#ffd166"/><circle cx="408" cy="14" r="1.5" fill="#ffd166"/><circle cx="408" cy="42" r="1.5" fill="#ffd166"/><circle cx="408" cy="70" r="1.5" fill="#ffd166"/><circle cx="408" cy="98" r="1.5" fill="#ffd166"/><circle cx="408" cy="126" r="1.5" fill="#ffd166"/><circle cx="408" cy="154" r="1.5" fill="#ffd166"/><circle cx="436" cy="14" r="1.5" fill="#ffd166"/><circle cx="436" cy="42" r="1.5" fill="#ffd166"/><circle cx="436" cy="70" r="1.5" fill="#ffd166"/><circle cx="436" cy="98" r="1.5" fill="#ffd166"/><circle cx="436" cy="126" r="1.5" fill="#ffd166"/><circle cx="436" cy="154" r="1.5" fill="#ffd166"/><circle cx="464" cy="14" r="1.5" fill="#ffd166"/><circle cx="464" cy="42" r="1.5" fill="#ffd166"/><circle cx="464" cy="70" r="1.5" fill="#ffd166"/><circle cx="464" cy="98" r="1.5" fill="#ffd166"/><circle cx="464" cy="126" r="1.5" fill="#ffd166"/><circle cx="464" cy="154" r="1.5" fill="#ffd166"/><circle cx="492" cy="14" r="1.5" fill="#ffd166"/><circle cx="492" cy="42" r="1.5" fill="#ffd166"/><circle cx="492" cy="70" r="1.5" fill="#ffd166"/><circle cx="492" cy="98" r="1.5" fill="#ffd166"/><circle cx="492" cy="126" r="1.5" fill="#ffd166"/><circle cx="492" cy="154" r="1.5" fill="#ffd166"/><circle cx="520" cy="14" r="1.5" fill="#ffd166"/><circle cx="520" cy="42" r="1.5" fill="#ffd166"/><circle cx="520" cy="70" r="1.5" fill="#ffd166"/><circle cx="520" cy="98" r="1.5" fill="#ffd166"/><circle cx="520" cy="126" r="1.5" fill="#ffd166"/><circle cx="520" cy="154" r="1.5" fill="#ffd166"/><circle cx="548" cy="14" r="1.5" fill="#ffd166"/><circle cx="548" cy="42" r="1.5" fill="#ffd166"/><circle cx="548" cy="70" r="1.5" fill="#ffd166"/><circle cx="548" cy="98" r="1.5" fill="#ffd166"/><circle cx="548" cy="126" r="1.5" fill="#ffd166"/><circle cx="548" cy="154" r="1.5" fill="#ffd166"/><circle cx="576" cy="14" r="1.5" fill="#ffd166"/><circle cx="576" cy="42" r="1.5" fill="#ffd166"/><circle cx="576" cy="70" r="1.5" fill="#ffd166"/><circle cx="576" cy="98" r="1.5" fill="#ffd166"/><circle cx="576" cy="126" r="1.5" fill="#ffd166"/><circle cx="576" cy="154" r="1.5" fill="#ffd166"/><circle cx="604" cy="14" r="1.5" fill="#ffd166"/><circle cx="604" cy="42" r="1.5" fill="#ffd166"/><circle cx="604" cy="70" r="1.5" fill="#ffd166"/><circle cx="604" cy="98" r="1.5" fill="#ffd166"/><circle cx="604" cy="126" r="1.5" fill="#ffd166"/><circle cx="604" cy="154" r="1.5" fill="#ffd166"/><circle cx="632" cy="14" r="1.5" fill="#ffd166"/><circle cx="632" cy="42" r="1.5" fill="#ffd166"/><circle cx="632" cy="70" r="1.5" fill="#ffd166"/><circle cx="632" cy="98" r="1.5" fill="#ffd166"/><circle cx="632" cy="126" r="1.5" fill="#ffd166"/><circle cx="632" cy="154" r="1.5" fill="#ffd166"/></g>

  <!-- lueur derrière l'icône -->
  <radialGradient id="gl" cx="530" cy="88" r="110" gradientUnits="userSpaceOnUse">
    <stop offset="0%"   stop-color="#ffd166" stop-opacity="0.18"/>
    <stop offset="100%" stop-color="#ffd166" stop-opacity="0"/>
  </radialGradient>
  <circle cx="530" cy="88" r="110" fill="url(#gl)"/>

  <!-- icône décorative -->
  <g transform="translate(530,88)" opacity="0.2">
    <path d="M0,-55 Q-36,-55 -36,-22 L-36,0 Q-36,18 0,18 Q36,18 36,36 L36,55 Q36,72 0,72"
      fill="none" stroke="#ffd166" stroke-width="3" stroke-linecap="round"/>
    <circle cx="-22" cy="-38" r="7" fill="#ffd166" opacity="0.45"/>
    <circle cx="22"  cy="52"  r="7" fill="#ffd166" opacity="0.45"/>
  </g>

  <!-- séparateur vertical -->
  <line x1="420" y1="20" x2="420" y2="155"
    stroke="#ffd166" stroke-width="0.6" stroke-opacity="0.15"/>

  <!-- bande accent gauche -->
  <rect x="0" y="0" width="4" height="175" fill="#ffd166" opacity="0.75"/>

  <!-- ligne top accent -->
  <line x1="4" y1="0.8" x2="420" y2="0.8"
    stroke="#ffd166" stroke-width="1.2" opacity="0.3"/>

  <!-- catégorie -->
  <text x="20" y="35"
    font-family="'Space Mono',monospace,system-ui" font-size="10" font-weight="700"
    fill="#ffd166" opacity="0.65" letter-spacing="2">DESKTOP</text>

  <!-- titre -->
  <text x="20" y="78"
    font-family="'Space Grotesk',system-ui,sans-serif" font-size="26" font-weight="700"
    fill="white" opacity="0.95" letter-spacing="-0.5">Python GUI</text>

  <!-- ligne sous le titre -->
  <line x1="20" y1="88" x2="170" y2="88"
    stroke="#ffd166" stroke-width="1.5" opacity="0.4"/>

  

  <!-- pills tech -->
  <rect x="36" y="148" width="56.8" height="18" rx="9"
      fill="#ffd166" fill-opacity="0.1" stroke="#ffd166" stroke-width="0.8" stroke-opacity="0.4"/>
    <text x="64.4" y="160.5"
      font-family="'Space Mono',monospace,system-ui" font-size="9.5" font-weight="700"
      fill="#ffd166" opacity="0.75" text-anchor="middle">Python</text><rect x="99.8" y="148" width="63.6" height="18" rx="9"
      fill="#ffd166" fill-opacity="0.1" stroke="#ffd166" stroke-width="0.8" stroke-opacity="0.4"/>
    <text x="131.6" y="160.5"
      font-family="'Space Mono',monospace,system-ui" font-size="9.5" font-weight="700"
      fill="#ffd166" opacity="0.75" text-anchor="middle">Tkinter</text>
</svg>